<?xml version="1.0" encoding="utf-8"?>
<!-- Generator: Adobe Illustrator 21.1.0, SVG Export Plug-In . SVG Version: 6.00 Build 0)  -->
<svg version="1.1" id="Layer_1" xmlns="http://www.w3.org/2000/svg" xmlns:xlink="http://www.w3.org/1999/xlink" x="0px" y="0px"
	 viewBox="0 0 150 150" style="enable-background:new 0 0 150 150;" xml:space="preserve">
<style type="text/css">
	.st0{fill:#363951;}
	.st1{fill:none;}
	.st2{fill:none;stroke:#666F84;stroke-width:10;stroke-linecap:round;}
	.st3{fill:none;stroke:#FFFFFF;stroke-width:6;stroke-linecap:round;}
	.st4{fill:#FFFFFF;}
	.st5{fill:#D1D2D3;}
</style>
<rect y="-0.3" class="st0" width="149.8" height="150"/>
<rect class="st1" width="150" height="150"/>
<circle class="st2" cx="75" cy="75" r="60"/>
<circle class="st3" cx="75" cy="75" r="60">
<animate  accumulate="none" additive="replace" attributeName="stroke-dashoffset" calcMode="linear" dur="2s" fill="remove" from="0" repeatCount="indefinite" restart="always" to="502">
	</animate>
<animate  accumulate="none" additive="replace" attributeName="stroke-dasharray" calcMode="linear" dur="2s" fill="remove" repeatCount="indefinite" restart="always" values="225.9 25.099999999999994;1 250;225.9 25.099999999999994">
	</animate>
</circle>
<path class="st4" d="M51.7,64c0,0-0.1,20,0,20.9c0.3,1.9,1.6,5.2,6.6,8.2c7.5,4.4,15,8.8,15,8.8V91.8c0,0-6.9-3.8-7-3.8
	c0,0-6.1-3.3-6.1-10.5c0-8.4,0-8.4,0-8.4L51.7,64z"/>
<path class="st4" d="M51.7,54.7V43.3c0,0,0-5.7,8.8-9.3v16.8c0,0,4.4-3.5,10.6-1.3v9.7l-8.6-4.6C62.5,54.5,58,52.3,51.7,54.7z"/>
<polygon class="st5" points="51.7,79.4 51.7,64.9 51.7,64 60.3,69.2 60.2,75.1 "/>
<path class="st4" d="M95.5,69.1c0,0,0.4-4.9-4.9-7.9c-5.3-3.1-6.8-4.2-6.8-4.2v10.6c0,0,3.1,2.6,3.1,6.6c0,4,0,22.1,0,22.1
	s-0.4,5.5-2.7,6.9c0,0-0.2,0.1-0.3,0.2c-0.1,0.1-0.3,0.3-0.3,0.4c-0.1,0.3,0,0.6,1.1,0c1.6-0.8,9.2-4.4,10.7-9.6
	C95.7,93.5,95.5,69.1,95.5,69.1z"/>
<path class="st4" d="M103.2,80.8l4.1-10.6c0.5-1.3,1.2-4.2,1.2-4.8c0.3-2.4,0.1-7.9-7.2-12.3c-0.3-0.2-0.7-0.4-1-0.6
	c0,0-8.5-4.9-13.9-8.1c-9.8-5.7-14.7,2.9-14.7,2.9c3.3,0,8.2,2.9,8.2,2.9s9.8,5.7,15.9,9.4s4.1,9.8,4.1,9.8l-3,8.7l-1.3,3.5v3.1
	l0.2,0.1v0l0,0l0,0l0,0l0.2,0.1l9.2,6.4l6.5-3.7L103.2,80.8z"/>
<g>
	<path class="st1" d="M68.4,74.6C64,71.9,49,63.6,49,63.6s-0.5-0.2-1.1-0.3c-0.3,0-0.6,0.3-0.7,0.5c0,0,0,0,0,0c0,0,0,0.1-0.1,0.1
		c-0.2,0.3-0.2,0.6-0.3,0.8c0,0.2-0.1,0.4-0.1,0.6V86c0,0-0.4,5.3,3.1,7.5c2.9,1.8,17.1,10.3,21.8,13.2c0,0,0,0,0,0l0.7,0.4V80.8
		C72.4,80.8,72.8,77.2,68.4,74.6z"/>
	<path class="st4" d="M72.8,49.9v16.8L54.7,56.5c0,0-5.7-2.6-11,0.4C38.4,60,38,65.8,38,71.1c0,5.3,0,19.8,0,19.8s0,6.6,4.9,9.3
		c4.9,2.6,19.8,11.5,19.8,11.5s5.7,3.5,10.6,1.3c0.1,0,0.1-0.1,0.2-0.1c7.9-3,8.5-9.5,8.5-9.5l0.1-44.2C82.1,59.1,81.6,53,72.8,49.9
		z M72.4,80.8v26.4l-0.7-0.4c0,0,0,0,0,0c-4.7-2.8-18.9-11.4-21.8-13.2c-3.5-2.2-3.1-7.5-3.1-7.5V65.3c0-0.2,0-0.5,0.1-0.6
		c0-0.2,0.1-0.5,0.3-0.8c0,0,0-0.1,0.1-0.1c0,0,0,0,0,0c0.2-0.3,0.4-0.5,0.7-0.5c0.6,0.1,1.1,0.3,1.1,0.3s15,8.4,19.4,11
		C72.8,77.2,72.4,80.8,72.4,80.8z"/>
</g>
<path class="st5" d="M38,68.8l8.8-4v18.5L38,87.8C38,87.8,38,68.9,38,68.8z"/>
</svg>
